<svg width="960" height="288" xmlns="http://www.w3.org/2000/svg" xmlns:xlink="http://www.w3.org/1999/xlink" overflow="hidden"><defs><clipPath id="clip0"><rect x="0" y="0" width="960" height="288"/></clipPath><clipPath id="clip1"><path d="M681.706 184.428 792.487 229.112 747.803 339.894 637.021 295.21Z" fill-rule="evenodd" clip-rule="evenodd"/></clipPath><clipPath id="clip2"><path d="M681.706 184.428 792.487 229.112 747.803 339.894 637.021 295.21Z" fill-rule="evenodd" clip-rule="evenodd"/></clipPath><clipPath id="clip3"><path d="M681.706 184.428 792.487 229.112 747.803 339.894 637.021 295.21Z" fill-rule="evenodd" clip-rule="evenodd"/></clipPath></defs><g clip-path="url(#clip0)"><rect x="0" y="0" width="960" height="288" fill="#111827"/><g><g><g><path d="M64.9394-26.6675 37.1877-42.6956C34.6882-44.1548 32.72-46.1231 31.2828-48.6005 29.8457-51.0779 29.1272-53.7537 29.1272-56.6279L29.1272-88.6844C29.1272-91.5586 29.8457-94.2343 31.2828-96.7118 32.72-99.1892 34.6882-101.157 37.1877-102.617L64.9394-118.645C67.4389-120.104 70.1258-120.834 73-120.834 75.8742-120.834 78.5611-120.104 81.0606-118.645L108.812-102.617C111.312-101.157 113.28-99.1892 114.717-96.7118 116.154-94.2343 116.873-91.5586 116.873-88.6844L116.873-56.6279C116.873-53.7537 116.154-51.0779 114.717-48.6005 113.28-46.1231 111.312-44.1548 108.812-42.6956L81.0606-26.6675C78.5611-25.2083 75.8742-24.4787 73-24.4787 70.1258-24.4787 67.4389-25.2083 64.9394-26.6675ZM9.24393-103.675 9.24393-120.635C9.24393-125.127 10.8078-128.937 13.9354-132.065 17.063-135.192 20.8728-136.756 25.3649-136.756L42.3254-136.756 42.3254-121.925 24.0754-121.925 24.0754-121.773 24.0754-118.731 9.24393-118.731ZM42.3254-9.24393 25.3649-9.24393C20.8728-9.24393 17.063-10.8078 13.9354-13.9354 10.8078-17.063 9.24393-20.8728 9.24393-25.3649L9.24393-42.3254 24.0754-42.3254 24.0754-24.0754 42.3254-24.0754 42.3254-9.24393ZM103.675-9.24393 103.675-24.0754 121.925-24.0754 121.925-42.3254 136.756-42.3254 136.756-25.3649C136.756-20.8728 135.192-17.063 132.065-13.9354 128.937-10.8078 125.127-9.24393 120.635-9.24393L103.675-9.24393ZM121.925-103.675 121.925-121.925 103.675-121.925 103.675-136.756 120.635-136.756C125.127-136.756 128.937-135.192 132.065-132.065 135.192-128.937 136.756-125.127 136.756-120.635L136.756-103.675 121.925-103.675ZM51.4638-92.3344 45.2483-88.7703 45.2483-81.7547 66.9167-69.0723 66.9167-44.1837 73-40.5997 79.0833-44.1837 79.0833-69.0723 100.752-81.7547 100.752-88.7703 94.5362-92.3344 73-79.652 51.4638-92.3344Z" fill="#FFFFFF" transform="matrix(1 0 0 1.00685 407 193)"/></g></g></g><g><g><g><path d="M11.1667-22.3333 11.1667-33.5 43.2708-33.5C41.2236-41.4098 37.3385-48.226 31.6156-53.949 25.8927-59.6719 19.0764-63.5569 11.1667-65.6042 13.0278-66.0694 14.8656-66.4184 16.6802-66.651 18.4948-66.8837 20.3792-67 22.3333-67 34.8027-67 45.3646-62.6729 54.0187-54.0187 62.6729-45.3646 67-34.8027 67-22.3333L11.1667-22.3333ZM78.1667-22.3333C78.1667-26.2417 77.7479-30.1267 76.9104-33.9885 76.0729-37.8504 74.8632-41.5494 73.2812-45.0854 77.1896-51.6923 82.5171-56.9965 89.2635-60.9979 96.01-64.9994 103.478-67 111.667-67 113.621-67 115.505-66.8837 117.32-66.651 119.134-66.4184 120.972-66.0694 122.833-65.6042 114.924-63.5569 108.131-59.6719 102.454-53.949 96.7777-48.226 92.8694-41.4098 90.7292-33.5L122.833-33.5 122.833-22.3333 78.1667-22.3333ZM67-55.6938C67-61.7423 68.1167-67.4187 70.35-72.7229 72.5833-78.0271 75.6542-82.7031 79.5625-86.751 83.4708-90.799 88.0538-94.0327 93.3115-96.4521 98.5691-98.8715 104.176-100.174 110.131-100.36 104.92-97.1035 100.36-93.1021 96.4521-88.3562 92.5437-83.6104 89.5194-78.3063 87.3792-72.4437 83.2848-70.4896 79.5392-68.0934 76.1427-65.2552 72.7462-62.4171 69.6986-59.2298 67-55.6938ZM56.8104-66.1625C55.6938-67 54.5771-67.791 53.4604-68.5354 52.3438-69.2798 51.1806-70.0244 49.9708-70.7688 49.9708-71.3271 50.0173-71.9087 50.1104-72.5135 50.2035-73.1184 50.25-73.7 50.25-74.2583 50.25-81.3306 49.1333-88.0306 46.9-94.3583 44.6667-100.686 41.5027-106.456 37.4083-111.667 43.55-109.154 48.8775-105.548 53.3906-100.849 57.9038-96.1496 61.3702-90.7292 63.7896-84.5875 62.1146-81.7958 60.6723-78.8413 59.4625-75.724 58.2527-72.6066 57.3688-69.4194 56.8104-66.1625Z" stroke="#FFFFFF" stroke-width="0.13951" fill="#FFFFFF" transform="matrix(1.00746 0 0 1 27 327)"/></g></g></g><g><g><g><path d="M72.25-8.5 70.975-14.875C70.125-15.2291 69.3281-15.601 68.5844-15.9906 67.8406-16.3802 67.0791-16.8584 66.3-17.425L60.1375-15.5125 55.8875-22.7375 60.775-26.9875C60.6334-27.8375 60.5625-28.7584 60.5625-29.75 60.5625-30.7416 60.6334-31.6625 60.775-32.5125L55.8875-36.7625 60.1375-43.9875 66.3-42.075C67.0791-42.6416 67.8406-43.1198 68.5844-43.5094 69.3281-43.899 70.125-44.2709 70.975-44.625L72.25-51 80.75-51 82.025-44.625C82.875-44.2709 83.6719-43.899 84.4156-43.5094 85.1594-43.1198 85.9209-42.6416 86.7-42.075L92.8625-43.9875 97.1125-36.7625 92.225-32.5125C92.3666-31.6625 92.4375-30.7416 92.4375-29.75 92.4375-28.7584 92.3666-27.8375 92.225-26.9875L97.1125-22.7375 92.8625-15.5125 86.7-17.425C85.9209-16.8584 85.1594-16.3802 84.4156-15.9906 83.6719-15.601 82.875-15.2291 82.025-14.875L80.75-8.5 72.25-8.5ZM76.5-21.25C78.8375-21.25 80.8385-22.0823 82.5031-23.7469 84.1677-25.4115 85-27.4125 85-29.75 85-32.0875 84.1677-34.0885 82.5031-35.7531 80.8385-37.4177 78.8375-38.25 76.5-38.25 74.1625-38.25 72.1615-37.4177 70.4969-35.7531 68.8323-34.0885 68-32.0875 68-29.75 68-27.4125 68.8323-25.4115 70.4969-23.7469 72.1615-22.0823 74.1625-21.25 76.5-21.25ZM17-25.5 17-76.5 17-58.225 17-59.5 17-25.5ZM17-17C14.6625-17 12.6615-17.8323 10.9969-19.4969 9.33229-21.1615 8.5-23.1625 8.5-25.5L8.5-76.5C8.5-78.8375 9.33229-80.8385 10.9969-82.5031 12.6615-84.1677 14.6625-85 17-85L42.5-85 51-76.5 85-76.5C87.3375-76.5 89.3385-75.6677 91.0031-74.0031 92.6677-72.3385 93.5-70.3375 93.5-68L93.5-54.0813C92.225-55.0021 90.8791-55.799 89.4625-56.4719 88.0459-57.1448 86.5584-57.7291 85-58.225L85-68 47.4938-68 38.9938-76.5 17-76.5 17-25.5 47.0688-25.5C47.2812-24.0125 47.6177-22.5604 48.0781-21.1438 48.5385-19.7271 49.0875-18.3459 49.725-17L17-17Z" fill="#FFFFFF" transform="matrix(1.0098 0 0 1 792 311)"/></g></g></g><g><g><g><path d="M205.05 293.667 234.95 293.667 239.283 276.333 200.717 276.333 205.05 293.667ZM205.05 302.333C203.028 302.333 201.258 301.719 199.742 300.492 198.225 299.264 197.214 297.675 196.708 295.725L191.833 276.333 248.167 276.333 243.292 295.725C242.786 297.675 241.775 299.264 240.258 300.492 238.742 301.719 236.972 302.333 234.95 302.333L205.05 302.333ZM189.667 267.667 250.333 267.667 250.333 259 189.667 259 189.667 267.667ZM220 241.667C220 234.444 222.528 228.306 227.583 223.25 232.639 218.194 238.778 215.667 246 215.667 246 222.167 243.942 227.8 239.825 232.567 235.708 237.333 230.544 240.222 224.333 241.233L224.333 250.333 259 250.333 259 267.667C259 270.05 258.151 272.09 256.454 273.788 254.757 275.485 252.717 276.333 250.333 276.333L189.667 276.333C187.283 276.333 185.243 275.485 183.546 273.788 181.849 272.09 181 270.05 181 267.667L181 250.333 215.667 250.333 215.667 241.233C209.456 240.222 204.292 237.333 200.175 232.567 196.058 227.8 194 222.167 194 215.667 201.222 215.667 207.361 218.194 212.417 223.25 217.472 228.306 220 234.444 220 241.667Z" fill="#FFFFFF"/></g></g></g><g clip-path="url(#clip1)"><g clip-path="url(#clip2)"><g clip-path="url(#clip3)"><path d="M729.14 297.999 731.922 299.121 730.731 302.072 727.95 300.951ZM728.255 285.173 725.893 287.021 730.956 293.494 729.672 296.679 732.454 297.801 734.386 293.01ZM698.415 285.606 701.197 286.728 700.006 289.679 697.224 288.557ZM697.531 272.78 695.168 274.628 700.232 281.101 698.947 284.286 701.729 285.408 703.661 280.617ZM750.606 244.781 753.387 245.903 752.197 248.854 749.416 247.732ZM749.721 231.954 747.359 233.802 752.422 240.276 751.138 243.461 753.92 244.583 755.852 239.792ZM719.88 232.388 722.662 233.51 721.472 236.461 718.69 235.339ZM718.997 219.561 716.634 221.409 721.698 227.883 720.413 231.068 723.195 232.19 725.127 227.399ZM755.236 277.583 758.018 278.706 756.828 281.657 754.045 280.535ZM754.352 264.757 751.989 266.605 757.053 273.078 755.768 276.263 758.55 277.385 760.483 272.594ZM754.35 256.57 761.504 238.833 748.653 222.403 729.713 225.076 717.928 210.01 697.273 212.925 690.119 230.662 671.179 233.335 663.376 252.68 675.161 267.746 668.004 285.489 680.856 301.919 699.796 299.246 711.581 314.312 732.236 311.397 739.392 293.654 758.332 290.981 766.135 271.635 754.35 256.57ZM730.132 228.046 747.357 225.615 758.074 239.317 751.568 255.447 734.343 257.879 723.626 244.177 730.132 228.046ZM699.407 215.653 716.632 213.222 727.35 226.924 720.844 243.055 703.619 245.486 692.901 231.784 699.407 215.653ZM666.806 252.196 673.313 236.063 690.536 233.632 701.255 247.336 694.749 263.467 677.524 265.897 666.806 252.196ZM699.377 296.275 682.152 298.706 671.434 285.004 677.941 268.872 695.166 266.441 705.884 280.143 699.377 296.275ZM697.531 264.589 704.037 248.458 721.262 246.027 731.98 259.729 725.473 275.859 708.248 278.29 697.531 264.589ZM712.877 311.099 702.159 297.397 708.666 281.265 725.891 278.834 736.608 292.535 730.101 308.668 730.101 308.668 712.877 311.099ZM756.198 288.252 738.973 290.683 728.255 276.982 734.762 260.851 751.989 258.42 762.705 272.119 756.198 288.252ZM724.51 265.19 727.292 266.312 726.102 269.264 723.32 268.141ZM723.627 252.364 721.265 254.212 726.328 260.685 725.044 263.87 727.826 264.992 729.758 260.201ZM693.787 252.798 696.569 253.92 695.378 256.871 692.597 255.749ZM692.903 239.971 690.54 241.819 695.604 248.292 694.319 251.477 697.101 252.599 699.034 247.808Z" fill="#FFFFFF"/></g></g></g><text fill="#FFFFFF" font-family="Calibri,Calibri_MSFontService,sans-serif" font-weight="700" font-size="43" transform="translate(374.209 264)">Raw Materia</text></g></svg>